HIERARCHY
ROOT Pelvis
{
	OFFSET -0.217368 -24.078917 2.858379
	CHANNELS 6 Xposition Yposition Zposition Zrotation Yrotation Xrotation 
	JOINT Left_hip
	{
		OFFSET 5.858135 -8.228005 -1.766408
		CHANNELS 3 Zrotation Yrotation Xrotation
		JOINT Left_knee
		{
			OFFSET 4.345143 -38.646942 0.803700
			CHANNELS 3 Zrotation Yrotation Xrotation
			JOINT Left_ankle
			{
				OFFSET -1.479033 -42.687447 -3.742800
				CHANNELS 3 Zrotation Yrotation Xrotation
				JOINT Left_foot
				{
					OFFSET 4.105436 -6.028605 12.204244
					CHANNELS 3 Zrotation Yrotation Xrotation
					End Site
					{
						OFFSET 0.000000 0.000000 0.000000
					}
				}
			}
		}
	}
	JOINT Right_hip
	{
		OFFSET -6.030973 -9.051328 -1.354253
		CHANNELS 3 Zrotation Yrotation Xrotation
		JOINT Right_knee
		{
			OFFSET -4.325663 -38.368790 -0.484304
			CHANNELS 3 Zrotation Yrotation Xrotation
			JOINT Right_ankle
			{
				OFFSET 1.905555 -42.004566 -3.456167
				CHANNELS 3 Zrotation Yrotation Xrotation
				JOINT Right_foot
				{
					OFFSET -3.483987 -6.210554 13.032330
					CHANNELS 3 Zrotation Yrotation Xrotation
					End Site
					{
						OFFSET 0.000000 0.000000 0.000000
					}
				}
			}
		}
	}
	JOINT Spine1
	{
		OFFSET 0.443945 12.440353 -3.838522
		CHANNELS 3 Zrotation Yrotation Xrotation
		JOINT Spine2
		{
			OFFSET 0.448844 13.795640 2.682033
			CHANNELS 3 Zrotation Yrotation Xrotation
			JOINT Spine3
			{
				OFFSET -0.226460 5.603239 0.285504
				CHANNELS 3 Zrotation Yrotation Xrotation
				JOINT Neck
				{
					OFFSET -1.339018 21.163553 -3.346758
					CHANNELS 3 Zrotation Yrotation Xrotation
					JOINT Head
					{
						OFFSET 1.011321 8.893734 5.040987
						CHANNELS 3 Zrotation Yrotation Xrotation
						End Site
						{
							OFFSET 0.000000 0.000000 0.000000
						}
					}
				}
				JOINT Left_collar
				{
					OFFSET 7.170247 11.399971 -1.889817
					CHANNELS 3 Zrotation Yrotation Xrotation
					JOINT Left_shoulder
					{
						OFFSET 12.292140 4.520507 -1.904600
						CHANNELS 3 Zrotation Yrotation Xrotation
						JOINT Left_elbow
						{
							OFFSET 25.533188 -1.564902 -2.294648
							CHANNELS 3 Zrotation Yrotation Xrotation
							JOINT Left_wrist
							{
								OFFSET 26.570929 1.269810 -0.737473
								CHANNELS 3 Zrotation Yrotation Xrotation
								JOINT Left_palm
								{
									OFFSET 8.669054 -1.063602 -1.559429
									CHANNELS 3 Zrotation Yrotation Xrotation
									End Site
									{
										OFFSET 0.000000 0.000000 0.000000
									}
								}
							}
						}
					}
				}
				JOINT Right_collar
				{
					OFFSET -8.295364 11.247234 -2.370738
					CHANNELS 3 Zrotation Yrotation Xrotation
					JOINT Right_shoulder
					{
						OFFSET -11.322830 4.685326 -0.847207
						CHANNELS 3 Zrotation Yrotation Xrotation
						JOINT Right_elbow
						{
							OFFSET -26.012751 -1.436928 -3.126872
							CHANNELS 3 Zrotation Yrotation Xrotation
							JOINT Right_wrist
							{
								OFFSET -26.910841 0.679372 -0.602677
								CHANNELS 3 Zrotation Yrotation Xrotation
								JOINT Right_palm
								{
									OFFSET -8.875370 -0.865157 -1.010708
									CHANNELS 3 Zrotation Yrotation Xrotation
									End Site
									{
										OFFSET 0.000000 0.000000 0.000000
									}
								}
							}
						}
					}
				}
			}
		}
	}
}
MOTION
Frames: 10
Frame Time: 0.016667
-0.049137 61.189980 2.663653 -0.807285 -0.090499 29.833840 31.779477 4.338189 -24.736342 -7.941683 0.905106 0.938296 14.091215 25.169071 24.673252 0.000000 0.000000 0.000000 -32.387192 -3.606270 -23.338431 5.771359 -0.549164 -5.594068 -12.609183 -24.861103 37.412801 0.000000 0.000000 0.000000 -0.470256 -1.525065 39.980294 3.849758 -0.339102 -23.494111 -1.189381 6.069544 23.529804 7.445172 -3.158549 -16.321383 0.000000 0.000000 0.000000 6.718741 -28.859890 8.840778 5.699198 -46.004107 -4.423435 21.090965 -7.798508 -1.062386 0.000000 0.000000 0.000000 0.000000 0.000000 0.000000 -2.877889 27.146457 9.084399 -3.274599 52.302835 -4.471384 -15.229747 0.795515 0.252999 0.000000 0.000000 0.000000 0.000000 0.000000 0.000000 
-0.035213 60.193863 4.431832 -1.437667 0.199600 35.495049 33.712762 6.375239 -32.196792 -9.818390 1.495793 7.881037 14.797503 26.384991 20.686013 0.000000 0.000000 0.000000 -34.006673 -5.361511 -30.285256 8.955316 -0.970974 0.537133 -12.991964 -25.546340 34.321941 0.000000 0.000000 0.000000 -2.497596 -0.892025 45.626638 5.421361 -0.842443 -21.986273 -0.945002 8.889744 23.586472 8.460653 -3.460327 -18.118235 0.000000 0.000000 0.000000 12.795622 -30.060713 8.015443 18.485765 -43.881015 -8.215353 19.555622 -1.498886 -0.108422 0.000000 0.000000 0.000000 0.000000 0.000000 0.000000 -9.449080 27.600547 8.077636 -18.935131 49.432826 -10.417338 -15.141485 -6.688975 1.014069 0.000000 0.000000 0.000000 0.000000 0.000000 0.000000 
-0.111281 58.462601 7.801501 -1.588734 -1.001822 39.683060 35.099415 8.377239 -38.926725 -12.163544 2.626562 17.174795 15.141514 27.228704 17.124457 0.000000 0.000000 0.000000 -36.651273 -7.606421 -36.808645 13.097155 -2.151640 9.893901 -13.551347 -26.638302 30.009322 0.000000 0.000000 0.000000 -3.901256 -0.357667 54.210901 3.935000 -0.301269 -24.463517 -1.282476 8.896872 24.039022 8.461977 -3.314745 -19.021743 0.000000 0.000000 0.000000 19.193192 -31.293323 7.011252 23.963007 -38.966103 -8.415373 18.664525 2.208530 0.371649 0.000000 0.000000 0.000000 0.000000 0.000000 0.000000 -15.084579 29.417576 7.508710 -27.473663 44.428185 -12.057382 -14.622591 -11.786762 1.469578 0.000000 0.000000 0.000000 0.000000 0.000000 0.000000 
-0.263731 55.709000 12.780023 -1.926593 -0.918580 44.177292 37.054809 10.311263 -43.586179 -15.092703 4.323950 25.707064 15.031511 27.689326 12.437004 0.000000 0.000000 0.000000 -39.172620 -9.058457 -39.166074 16.872083 -3.888048 18.612953 -10.547659 -23.323972 24.380466 0.000000 0.000000 0.000000 -4.559077 -0.019867 59.220528 4.768786 -0.472587 -24.874810 -1.717875 10.471189 23.984908 10.606899 -5.045705 -16.190892 0.000000 0.000000 0.000000 22.279268 -32.979335 6.642753 28.257677 -36.007998 -8.540037 18.021380 4.787963 0.670198 0.000000 0.000000 0.000000 0.000000 0.000000 0.000000 -18.307295 30.117032 7.037191 -32.747045 38.710875 -11.581174 -13.646735 -13.580041 1.506966 0.000000 0.000000 0.000000 0.000000 0.000000 0.000000 
-0.562774 53.210747 19.112272 -2.260282 -1.513530 47.148954 38.982666 11.483715 -44.927251 -17.226999 5.773606 30.990125 16.418397 29.121582 15.567897 0.000000 0.000000 0.000000 -39.972285 -9.602446 -40.109682 18.607995 -4.912276 22.648602 -11.217486 -24.410958 21.990994 0.000000 0.000000 0.000000 -4.901000 0.198131 66.047968 4.055813 -0.157787 -27.266854 -0.584838 9.958587 25.454107 9.546412 -5.015247 -12.904901 0.000000 0.000000 0.000000 25.766191 -31.592549 5.728423 29.136472 -33.499167 -7.847523 20.313685 5.211127 0.839118 0.000000 0.000000 0.000000 0.000000 0.000000 0.000000 -21.848712 29.664566 6.283686 -34.146679 36.683336 -11.148284 -15.443393 -12.418353 1.639536 0.000000 0.000000 0.000000 0.000000 0.000000 0.000000 
-1.095567 50.411392 26.772591 -2.154810 -0.948257 52.058516 40.293528 11.434157 -42.942189 -19.377563 6.952341 32.945999 14.230468 26.098343 16.553293 0.000000 0.000000 0.000000 -41.218226 -9.397208 -37.877571 20.345054 -5.145232 20.546988 -12.330086 -25.602530 25.477735 0.000000 0.000000 0.000000 -4.680685 0.053061 68.536235 5.023713 -0.262820 -28.720939 -1.378882 10.277502 27.664921 10.491952 -6.532245 -8.343312 0.000000 0.000000 0.000000 25.329017 -32.141354 5.882020 27.730787 -35.680654 -8.295387 28.618317 8.354451 1.954333 0.000000 0.000000 0.000000 0.000000 0.000000 0.000000 -17.266615 31.093595 7.436733 -35.424064 39.557230 -12.784681 -24.777688 -14.232269 3.226142 0.000000 0.000000 0.000000 0.000000 0.000000 0.000000 
-1.716253 49.369072 35.849129 -3.030125 -0.134649 63.357541 41.875882 12.358635 -43.835540 -20.439982 6.824773 29.504511 11.623914 22.427223 21.178506 0.000000 0.000000 0.000000 -38.562607 -9.553236 -41.802912 20.549596 -4.800507 17.874679 -13.525031 -26.500632 30.951043 0.000000 0.000000 0.000000 -5.398582 0.533518 66.710643 3.474534 0.330566 -33.866170 0.995560 7.680506 32.580439 7.443608 -4.714924 -6.694854 0.000000 0.000000 0.000000 24.411762 -29.055633 5.680757 26.143218 -38.611267 -8.896091 37.750779 10.592634 3.392537 0.000000 0.000000 0.000000 0.000000 0.000000 0.000000 -18.709115 29.413648 6.827931 -31.368513 45.431033 -13.900921 -38.417986 -18.950316 6.848578 0.000000 0.000000 0.000000 0.000000 0.000000 0.000000 
-2.164298 48.727966 46.444706 -1.842449 0.826928 72.025161 42.622266 11.325374 -39.689928 -17.901925 4.732780 21.478789 2.172165 11.419007 28.182371 0.000000 0.000000 0.000000 -39.171686 -9.505514 -40.801979 18.030079 -3.423275 12.357333 -6.910148 -18.700040 36.708907 0.000000 0.000000 0.000000 -6.790205 1.601305 71.587940 8.380287 0.461315 -42.927873 -0.212217 8.925891 38.319382 1.866808 -1.462910 -0.116477 0.000000 0.000000 0.000000 19.608361 -29.891464 6.682596 24.316615 -41.366145 -9.289219 52.488105 12.424864 5.858739 0.000000 0.000000 0.000000 0.000000 0.000000 0.000000 -12.499624 31.031189 8.402067 -29.806920 50.586554 -15.419220 -56.555593 -19.850029 11.260464 0.000000 0.000000 0.000000 0.000000 0.000000 0.000000 
-2.330580 49.055351 57.341263 -0.874815 0.807763 85.611204 41.224604 10.925505 -40.080813 -12.270290 2.224862 11.634697 -2.969396 6.982996 34.848195 0.000000 0.000000 0.000000 -42.165748 -10.559401 -40.656698 15.162002 -1.895217 3.005058 -0.807419 -12.812507 44.174456 0.000000 0.000000 0.000000 -6.915808 1.795807 74.894890 9.471435 1.384445 -52.372976 -0.507587 9.027499 41.677590 2.807126 -1.915842 -2.579463 0.000000 0.000000 0.000000 20.190608 -32.578952 7.029119 15.874043 -42.121577 -6.959117 76.016245 12.075807 9.181898 0.000000 0.000000 0.000000 0.000000 0.000000 0.000000 -10.514745 28.383947 8.101194 -23.526702 55.426872 -14.401594 -77.621157 -17.246318 14.962652 0.000000 0.000000 0.000000 0.000000 0.000000 0.000000 
-2.417572 47.846031 67.586746 -0.369920 1.808295 100.374121 40.983720 11.403307 -41.939162 -7.044787 0.914875 5.033166 -4.182664 6.425071 37.755196 0.000000 0.000000 0.000000 -42.712995 -12.416536 -45.906508 13.663075 -1.540672 1.109424 -1.019118 -12.983598 43.834719 0.000000 0.000000 0.000000 -6.061624 1.142415 75.499267 12.870668 3.194975 -65.360801 -1.722328 13.003878 50.103759 2.320787 -1.455291 -3.434586 0.000000 0.000000 0.000000 18.338820 -33.884962 7.675950 12.602175 -41.526882 -5.861486 93.817731 12.757414 13.241043 0.000000 0.000000 0.000000 0.000000 0.000000 0.000000 -3.977633 27.872650 9.134012 -24.714993 55.335687 -14.946757 -88.097516 -16.104920 16.936792 0.000000 0.000000 0.000000 0.000000 0.000000 0.000000 
